<?xml version="1.0" encoding="utf-8"?>
<!-- Generator: Adobe Illustrator 25.4.1, SVG Export Plug-In . SVG Version: 6.00 Build 0)  -->
<svg version="1.1" id="레이어_1" xmlns="http://www.w3.org/2000/svg" xmlns:xlink="http://www.w3.org/1999/xlink" x="0px"
	 y="0px" viewBox="0 0 41.75 27.41" style="enable-background:new 0 0 41.75 27.41;" xml:space="preserve">
<style type="text/css">
	.st0{fill:none;stroke:#AFAFAF;stroke-linecap:round;stroke-linejoin:round;stroke-miterlimit:10;}
	.st1{fill:#AFAFAF;}
</style>
<path class="st0" d="M38.49,20.05c-1.32,0.94-2.89,1.07-4.34,0.36c-1.28-0.63-2.03-1.75-3.64-1.24c-0.81,0.26-1.5,0.8-2.17,1.34
	c-0.66,0.54-1.34,1.09-2.14,1.38c-2.83,1.02-5.03-1.56-7.75-1.69c-1.6-0.08-3.29,0.4-4.59,1.35c-3.33,3.16-5.95,0.91-5.95,0.91
	c-4.15-3.05-4.64,0.71-4.64,0.71"/>
<path class="st1" d="M9.07,22.82c1.01,0.32,2.59,0.36,4.41-1.18l-2.8-5.24c-0.03-0.06-0.05-0.12-0.07-0.18
	c-0.04-0.06-0.08-0.1-0.11-0.16c-0.6-1.13-0.17-2.54,0.96-3.14l8.6-4.59c1.13-0.6,2.54-0.18,3.15,0.95c0.6,1.13,0.17,2.54-0.96,3.14
	l-6.55,3.5l2.17,4.06c0.19-0.01,0.39-0.01,0.58,0c1.33,0.07,2.53,0.71,3.74,1.24l3.7-1.98c1.03-0.55,2.27-0.25,2.95,0.65
	c0.51-0.39,1.06-0.75,1.67-0.94c1.61-0.51,2.36,0.6,3.64,1.24c0.53,0.26,1.07,0.41,1.61,0.44c0.05-1.04-0.17-2.1-0.69-3.08
	L28.71,5.67c-1.55-2.91-5.18-4-8.08-2.45L8.75,9.57c-2.91,1.55-4.01,5.17-2.45,8.08L9.07,22.82z M25.03,9.02
	c0.12-0.53,0.84-0.64,1.1-0.15l4.74,8.88c0.26,0.48-0.23,1.03-0.74,0.83l-6.23-2.37c-0.27-0.11-0.43-0.39-0.36-0.68L25.03,9.02z"/>
</svg>
