<?xml version="1.0" encoding="utf-8"?>
<!-- Generator: Adobe Illustrator 25.4.1, SVG Export Plug-In . SVG Version: 6.00 Build 0)  -->
<svg version="1.1" id="레이어_1" xmlns="http://www.w3.org/2000/svg" xmlns:xlink="http://www.w3.org/1999/xlink" x="0px"
	 y="0px" viewBox="0 0 211.29 166.05" style="enable-background:new 0 0 211.29 166.05;" xml:space="preserve">
<path d="M105.67,157.29c-17.43,0-34.5-3.46-49.52-10.01c-12.53,6.85-29.4,7.98-38.64,8.02c-2.79,0-5.09-1.86-5.69-4.55
	c-0.6-2.69,0.74-5.37,3.24-6.52c6.18-2.84,11.16-7.39,14.84-13.54C14.49,116.94,6.06,99.53,6.06,81.29c0-41.91,44.69-76,99.62-76
	s99.62,34.09,99.62,76C205.29,123.2,160.6,157.29,105.67,157.29z M55.89,137.72c0.64,0,1.29,0.14,1.89,0.42
	c14.35,6.64,30.92,10.15,47.9,10.15c49.97,0,90.62-30.06,90.62-67c0-36.94-40.65-67-90.62-67s-90.62,30.06-90.62,67
	c0,16.58,8.31,32.51,23.39,44.86c1.62,1.32,2.11,3.59,1.19,5.46c-2.7,5.51-6.26,10.24-10.53,14.05c8.1-0.88,17.42-2.87,24.39-7.25
	C54.22,137.95,55.05,137.72,55.89,137.72z M17.48,146.3C17.47,146.3,17.47,146.3,17.48,146.3C17.47,146.3,17.47,146.3,17.48,146.3z"
	/>
<circle cx="65.67" cy="81.29" r="8.81"/>
<circle cx="105.67" cy="81.29" r="8.81"/>
<circle cx="145.68" cy="81.29" r="8.81"/>
</svg>
